<svg xmlns="http://www.w3.org/2000/svg" width="167" height="74.34" viewBox="0 0 167 74.34">
  <g id="Group_59" data-name="Group 59" transform="translate(-61.891 -5343.634)">
    <path id="Path_71" data-name="Path 71" d="M141.686,5358.692a9.382,9.382,0,0,1-3.1.53c-3.315,0-5.266-2.046-5.266-5.295,0-3.611,2.292-5.368,5.242-5.368a8.119,8.119,0,0,1,3.12.6l.756-2.913a9.8,9.8,0,0,0-4.047-.721c-4.974,0-8.972,3.08-8.972,8.616,0,4.621,2.926,8.112,8.606,8.112a10.7,10.7,0,0,0,4.218-.7l-.561-2.864Zm12.945-1.4a8.509,8.509,0,0,0,.122-1.444c0-2.913-1.463-5.873-5.315-5.873-4.144,0-6.021,3.3-6.021,6.282,0,3.683,2.316,5.994,6.362,5.994a11.906,11.906,0,0,0,4.316-.723l-.487-2.479a10.608,10.608,0,0,1-3.292.482c-1.731,0-3.242-.722-3.365-2.239Zm-7.7-2.5a2.416,2.416,0,0,1,2.292-2.384,2.133,2.133,0,0,1,2.1,2.384Zm10.045,7.22h3.706v-6.788a2.491,2.491,0,0,1,.146-.915,1.974,1.974,0,0,1,1.878-1.372c1.341,0,1.877,1.035,1.877,2.552v6.522h3.706v-6.98c0-3.466-1.828-5.055-4.266-5.055a4.378,4.378,0,0,0-3.681,1.877h-.073l-.171-1.613h-3.218c.048,1.036.1,2.287.1,3.755v8.015Zm14.652-14.322v2.552h-1.585v2.7h1.585v4.814a4.833,4.833,0,0,0,1.024,3.49,3.883,3.883,0,0,0,2.779,1.011,7.349,7.349,0,0,0,2.413-.313l-.025-2.768a6.1,6.1,0,0,1-1.1.1c-1.122,0-1.462-.651-1.462-2.07v-4.261h2.657v-2.7h-2.657v-3.37l-3.633.818Zm8.435,14.322h3.706v-5.969a4.29,4.29,0,0,1,.073-.819,2.377,2.377,0,0,1,2.536-1.853,5.369,5.369,0,0,1,1,.1v-3.442a3.894,3.894,0,0,0-.78-.048,3.5,3.5,0,0,0-3.218,2.431h-.1l-.121-2.166h-3.194c.049,1.011.1,2.143.1,3.876v7.894Zm19.6-4.718a8.627,8.627,0,0,0,.121-1.444c0-2.913-1.462-5.873-5.314-5.873-4.145,0-6.022,3.3-6.022,6.282,0,3.683,2.316,5.994,6.363,5.994a11.9,11.9,0,0,0,4.315-.723l-.487-2.479a10.608,10.608,0,0,1-3.292.482c-1.731,0-3.242-.722-3.365-2.239Zm-7.7-2.5a2.415,2.415,0,0,1,2.291-2.384,2.133,2.133,0,0,1,2.1,2.384Zm19.113,7.22v-9.074h2.365v-2.7h-2.39v-.6c0-1.155.512-2.094,1.731-2.094a4.072,4.072,0,0,1,1.195.168l.146-2.816a7.2,7.2,0,0,0-1.974-.24,4.866,4.866,0,0,0-3.291,1.179,5.328,5.328,0,0,0-1.512,3.947v.458h-1.561v2.7h1.561v9.074Zm9.605-12.035c-3.827,0-6.363,2.431-6.363,6.234a5.8,5.8,0,0,0,6.168,6.065,5.946,5.946,0,0,0,6.29-6.282,5.76,5.76,0,0,0-6.095-6.017Zm-.1,2.6c1.682,0,2.365,1.781,2.365,3.538,0,2.118-.927,3.538-2.365,3.538-1.585,0-2.438-1.516-2.438-3.538,0-1.733.659-3.538,2.438-3.538Zm8.485,9.435h3.705v-5.969a4.217,4.217,0,0,1,.074-.819,2.377,2.377,0,0,1,2.535-1.853,5.369,5.369,0,0,1,1,.1v-3.442a3.889,3.889,0,0,0-.78-.048,3.5,3.5,0,0,0-3.219,2.431h-.1l-.121-2.166h-3.194c.048,1.011.1,2.143.1,3.876v7.894Z" transform="translate(-8.113 -0.123)" fill="#a25626"/>
    <path id="Path_72" data-name="Path 72" d="M171.251,5381.332a9.4,9.4,0,0,1-3.1.53c-3.315,0-5.266-2.045-5.266-5.295,0-3.611,2.292-5.368,5.241-5.368a8.13,8.13,0,0,1,3.121.6l.756-2.912a9.8,9.8,0,0,0-4.046-.722c-4.974,0-8.972,3.081-8.972,8.617,0,4.621,2.926,8.112,8.606,8.112a10.693,10.693,0,0,0,4.217-.7l-.56-2.864Zm3-12.9v16.223h3.731v-16.223Zm15.164,16.223,5.533-16.223H191l-2.1,6.933c-.56,1.853-1.073,3.779-1.487,5.729h-.073c-.391-2.021-.9-3.875-1.463-5.8l-2-6.86h-4.071l5.266,16.223Zm7.29-16.223v16.223h3.73v-16.223Zm6.947,16.223h10.264v-3.08h-6.534v-13.143h-3.731v16.223Z" transform="translate(-11.665 -2.947)" fill="#a25626"/>
    <path id="Path_73" data-name="Path 73" d="M137.735,5406.43a10.873,10.873,0,0,0,4.657.987c4.51,0,6.631-2.31,6.631-5.031,0-2.286-1.365-3.779-4.266-4.837-2.121-.794-3.048-1.252-3.048-2.287,0-.842.78-1.564,2.389-1.564a7.884,7.884,0,0,1,3.438.77l.829-2.96a10.169,10.169,0,0,0-4.193-.819c-3.877,0-6.217,2.119-6.217,4.887,0,2.358,1.78,3.85,4.51,4.789,1.974.7,2.755,1.275,2.755,2.287,0,1.059-.9,1.757-2.609,1.757a9.569,9.569,0,0,1-4.12-1.011l-.757,3.033Zm21.04-15.742c-4.852,0-8,3.635-8,8.5,0,4.621,2.852,8.256,7.728,8.256,4.8,0,8.069-3.226,8.069-8.544,0-4.477-2.755-8.208-7.8-8.208Zm-.1,2.913c2.56,0,3.973,2.5,3.973,5.416,0,3.153-1.438,5.512-3.949,5.512-2.487,0-4-2.238-4-5.415,0-3.154,1.462-5.513,3.973-5.513Zm21.844,10.254a9.4,9.4,0,0,1-3.1.53c-3.316,0-5.266-2.045-5.266-5.3,0-3.611,2.291-5.368,5.241-5.368a8.114,8.114,0,0,1,3.121.6l.756-2.913a9.811,9.811,0,0,0-4.047-.722c-4.973,0-8.972,3.082-8.972,8.618,0,4.621,2.926,8.111,8.606,8.111a10.712,10.712,0,0,0,4.218-.7l-.56-2.864Zm3-12.9v16.223h3.73v-16.223Zm16.724,6.379H194.2v-3.37h6.412v-3.01H190.469v16.223h10.483v-3.008H194.2v-3.851h6.046v-2.984Zm6.533,9.844h3.731v-13.141h4.486v-3.082H202.365v3.082h4.413v13.141Zm17.87,0v-6.763l5.413-9.46h-4.169l-1.659,3.9c-.487,1.155-.877,2.094-1.243,3.105h-.048c-.414-1.06-.756-1.926-1.268-3.105l-1.682-3.9H215.75l5.193,9.581v6.643Z" transform="translate(-9.112 -5.652)" fill="#a25626"/>
    <path id="Path_74" data-name="Path 74" d="M99.118,5381.25h-3.58l-2.6,2.57h8.788l-2.6-2.57Z" transform="translate(-3.729 -4.519)" fill="#404041" fill-rule="evenodd"/>
    <path id="Path_75" data-name="Path 75" d="M94.8,5379.364v-3.213l-2.6-2.571v8.676l2.6-2.892Z" transform="translate(-3.64 -3.598)" fill="#404041" fill-rule="evenodd"/>
    <path id="Path_76" data-name="Path 76" d="M95.538,5375.377h3.58l2.6-2.892H92.934l2.6,2.892Z" transform="translate(-3.729 -3.466)" fill="#404041" fill-rule="evenodd"/>
    <path id="Path_77" data-name="Path 77" d="M100.7,5376.151v3.213l2.6,2.892v-8.676l-2.6,2.571Z" transform="translate(-4.663 -3.598)" fill="#404041" fill-rule="evenodd"/>
    <path id="Path_78" data-name="Path 78" d="M89.84,5382.5l-5.208-5.141,5.208-5.142-1.953-1.928-7.16,7.069,7.16,7.069,1.953-1.928Z" transform="translate(-2.263 -3.203)" fill="#a25626" fill-rule="evenodd"/>
    <path id="Path_79" data-name="Path 79" d="M91.557,5370.526l5.208-5.142,5.533,5.142,1.953-1.928-7.486-7.069L89.6,5368.6l1.953,1.928Z" transform="translate(-3.329 -2.15)" fill="#a25626" fill-rule="evenodd"/>
    <path id="Path_80" data-name="Path 80" d="M102.3,5385.267l-5.533,5.142-5.208-5.142L89.6,5387.2l7.16,7.069,7.486-7.069-1.953-1.928Z" transform="translate(-3.329 -5.002)" fill="#a25626" fill-rule="evenodd"/>
    <path id="Path_81" data-name="Path 81" d="M104.771,5372.222l5.207,5.142-5.207,5.141,1.953,1.928,7.16-7.069-7.16-7.069-1.953,1.928Z" transform="translate(-5.151 -3.203)" fill="#a25626" fill-rule="evenodd"/>
    <path id="Path_82" data-name="Path 82" d="M85.314,5364.591a15.872,15.872,0,0,1,21.807,0l1.952-1.928c-7.16-6.749-18.552-6.749-25.387,0l1.628,1.928Z" transform="translate(-2.618 -1.678)" fill="#404041" fill-rule="evenodd"/>
    <path id="Path_83" data-name="Path 83" d="M83.83,5387.221a15.62,15.62,0,0,1,0-21.207l-1.952-1.929a17.881,17.881,0,0,0,0,25.063l1.952-1.928Z" transform="translate(-1.785 -2.457)" fill="#404041" fill-rule="evenodd"/>
    <path id="Path_84" data-name="Path 84" d="M107.12,5391.476a16.559,16.559,0,0,1-21.807,0l-1.628,1.927c6.836,6.427,18.226,6.427,25.387,0l-1.952-1.927Z" transform="translate(-2.618 -5.748)" fill="#404041" fill-rule="evenodd"/>
    <path id="Path_85" data-name="Path 85" d="M111.06,5366.014a15.622,15.622,0,0,1,0,21.207l1.952,1.928a18.525,18.525,0,0,0,0-25.063l-1.952,1.929Z" transform="translate(-5.907 -2.457)" fill="#404041" fill-rule="evenodd"/>
    <path id="Path_86" data-name="Path 86" d="M79.851,5389.484,66.507,5376.31l13.344-12.853-1.953-1.928L62.6,5376.31l15.3,15.1,1.953-1.928Z" transform="translate(-0.085 -2.15)" fill="#a25626" fill-rule="evenodd"/>
    <path id="Path_87" data-name="Path 87" d="M82.68,5360.343,95.7,5347.489l13.344,12.854,1.953-1.928-15.3-14.781-14.972,14.781,1.953,1.928Z" transform="translate(-2.263)" fill="#a25626" fill-rule="evenodd"/>
    <path id="Path_88" data-name="Path 88" d="M109.043,5394.032,95.7,5407.207,82.68,5394.032l-1.953,1.928,14.972,15.1,15.3-15.1-1.953-1.928Z" transform="translate(-2.263 -6.055)" fill="#a25626" fill-rule="evenodd"/>
    <path id="Path_89" data-name="Path 89" d="M113.649,5363.457l13.344,12.853-13.344,13.174,1.953,1.928,15.3-15.1-15.3-14.781-1.953,1.928Z" transform="translate(-6.218 -2.15)" fill="#a25626" fill-rule="evenodd"/>
    <path id="Path_90" data-name="Path 90" d="M61.891,5427.035a3.58,3.58,0,0,0,1.535.325c1.487,0,2.186-.762,2.186-1.658,0-.753-.45-1.246-1.406-1.594-.7-.263-1-.413-1-.754,0-.278.258-.516.787-.516a2.611,2.611,0,0,1,1.133.253l.274-.976a3.357,3.357,0,0,0-1.382-.271c-1.278,0-2.049.7-2.049,1.611,0,.777.586,1.27,1.486,1.579.651.229.909.421.909.754,0,.349-.3.579-.861.579a3.164,3.164,0,0,1-1.358-.333l-.25,1Zm34.937-.849a3.083,3.083,0,0,1-1.021.175,1.758,1.758,0,0,1-.008-3.515,2.688,2.688,0,0,1,1.029.2l.249-.959a3.216,3.216,0,0,0-1.334-.239,2.746,2.746,0,0,0-2.957,2.842,2.56,2.56,0,0,0,2.837,2.673,3.526,3.526,0,0,0,1.39-.229l-.185-.944Zm73.274,1.095h1.214v-1.912a2.994,2.994,0,0,0,.418.024,2.528,2.528,0,0,0,1.76-.564,1.7,1.7,0,0,0,.5-1.27,1.551,1.551,0,0,0-.579-1.236,2.62,2.62,0,0,0-1.656-.429,10.3,10.3,0,0,0-1.656.11v5.276Zm1.214-4.427a2.071,2.071,0,0,1,.506-.048c.611,0,.956.293.956.785,0,.548-.4.872-1.053.872a1.918,1.918,0,0,1-.409-.031v-1.578Zm29.351,4.427h1.214v-1.912a2.986,2.986,0,0,0,.418.024,2.528,2.528,0,0,0,1.76-.564,1.7,1.7,0,0,0,.5-1.27,1.553,1.553,0,0,0-.578-1.236,2.622,2.622,0,0,0-1.656-.429,10.283,10.283,0,0,0-1.656.11v5.276Zm1.214-4.427a2.071,2.071,0,0,1,.506-.048c.611,0,.956.293.956.785,0,.548-.4.872-1.053.872a1.913,1.913,0,0,1-.409-.031v-1.578Zm-132.595-1.009a2.6,2.6,0,0,0-2.636,2.8,2.507,2.507,0,0,0,2.548,2.722,2.564,2.564,0,0,0,2.66-2.816,2.507,2.507,0,0,0-2.572-2.707Zm-.032.961c.844,0,1.31.824,1.31,1.785,0,1.039-.474,1.817-1.3,1.817s-1.318-.738-1.318-1.785.482-1.817,1.31-1.817Zm7.661,3.38a3.087,3.087,0,0,1-1.021.175,1.758,1.758,0,0,1-.009-3.515,2.693,2.693,0,0,1,1.029.2l.249-.959a3.224,3.224,0,0,0-1.335-.239,2.746,2.746,0,0,0-2.957,2.842,2.56,2.56,0,0,0,2.837,2.673,3.534,3.534,0,0,0,1.391-.229l-.185-.944Zm1.447-4.253v5.348h1.23v-5.348Zm5.563,3.976.418,1.372h1.318l-1.68-5.348H82.375l-1.656,5.348h1.27l.386-1.372Zm-1.374-.9.321-1.135c.088-.311.169-.715.249-1.031h.017c.08.316.176.713.273,1.031l.338,1.135Zm4.293,2.276h3.384v-1.015H88.074v-4.333H86.845v5.348Zm11.431-5.348v5.348h1.23v-2.237h2.017v2.237h1.222v-5.348h-1.222v2.055H99.506v-2.055Zm8.81,3.976.418,1.372h1.318l-1.68-5.348h-1.608l-1.656,5.348h1.27l.386-1.372Zm-1.374-.9.321-1.135c.089-.311.169-.715.249-1.031h.017c.08.316.176.713.273,1.031l.338,1.135Zm5.418,2.276v-1.61c0-.873-.016-1.626-.048-2.333l.025-.008a19.739,19.739,0,0,0,.94,1.889l1.157,2.063h1.286v-5.348h-1.125v1.563a19.637,19.637,0,0,0,.1,2.229h-.025a15.42,15.42,0,0,0-.883-1.832l-1.125-1.96H110v5.348Zm9.4-3.062h-2.018v.944h.836v1.119a1.656,1.656,0,0,1-.6.079,1.742,1.742,0,1,1,.088-3.483,3.052,3.052,0,0,1,1.262.229l.258-.968a3.8,3.8,0,0,0-1.5-.262,2.782,2.782,0,0,0-3.094,2.793,2.57,2.57,0,0,0,.764,1.944,3.043,3.043,0,0,0,2.2.722,6.108,6.108,0,0,0,1.809-.3v-2.816Zm4.639-.182H123.18v-1.111h2.114v-.992h-3.343v5.348h3.456v-.991H123.18v-1.27h1.994v-.983Zm4.2,3.244h1.23v-4.332h1.478v-1.016h-4.163v1.016h1.454v4.332Zm3.819-5.348v5.348h1.229v-2.237h2.018v2.237h1.221v-5.348h-1.221v2.055h-2.018v-2.055Zm6,5.348H140.4v-2.1h.37c.5.008.731.19.875.857a6.586,6.586,0,0,0,.378,1.245h1.254c-.1-.206-.274-.9-.443-1.508a1.349,1.349,0,0,0-.723-1v-.024a1.419,1.419,0,0,0,.956-1.316,1.351,1.351,0,0,0-.5-1.119,2.8,2.8,0,0,0-1.752-.42,11.06,11.06,0,0,0-1.632.11v5.276Zm1.214-4.451a3.136,3.136,0,0,1,.554-.039c.562.008.9.253.9.745,0,.468-.362.77-.972.77H140.4v-1.476Zm6.366-.984a2.6,2.6,0,0,0-2.636,2.8,2.507,2.507,0,0,0,2.548,2.722,2.564,2.564,0,0,0,2.66-2.816,2.507,2.507,0,0,0-2.572-2.707Zm-.032.961c.844,0,1.31.824,1.31,1.785,0,1.039-.474,1.817-1.3,1.817s-1.318-.738-1.318-1.785.482-1.817,1.31-1.817Zm3.859-.873v2.983c0,1.706.8,2.452,2.17,2.452,1.415,0,2.259-.786,2.259-2.436v-3H153.8v3.079c0,.944-.354,1.389-1,1.389-.627,0-.981-.469-.981-1.389v-3.079Zm10.474,2.285h-2.018v.944h.836v1.119a1.659,1.659,0,0,1-.6.079,1.742,1.742,0,1,1,.088-3.483,3.052,3.052,0,0,1,1.262.229l.257-.968a3.788,3.788,0,0,0-1.5-.262,2.781,2.781,0,0,0-3.094,2.793,2.572,2.572,0,0,0,.763,1.944,3.047,3.047,0,0,0,2.2.722,6.108,6.108,0,0,0,1.809-.3v-2.816Zm1.416-2.285v5.348h1.229v-2.237h2.018v2.237h1.221v-5.348h-1.221v2.055h-2.018v-2.055Zm12.741,0v2.983c0,1.706.8,2.452,2.17,2.452,1.414,0,2.259-.786,2.259-2.436v-3H178.43v3.079c0,.944-.354,1.389-1,1.389s-.981-.469-.981-1.389v-3.079Zm5.949,5.324a9.541,9.541,0,0,0,1.326.079,3.45,3.45,0,0,0,2.129-.483,1.42,1.42,0,0,0,.563-1.135,1.343,1.343,0,0,0-1.077-1.317v-.017a1.209,1.209,0,0,0,.892-1.142,1.165,1.165,0,0,0-.651-1.048,3.034,3.034,0,0,0-1.6-.3,10.007,10.007,0,0,0-1.583.11v5.253Zm1.213-4.451a3.435,3.435,0,0,1,.522-.031c.555,0,.868.214.868.618s-.346.659-.988.659h-.4v-1.246Zm0,2.11h.418c.611,0,1.1.215,1.1.754,0,.563-.49.77-1.044.77a3.972,3.972,0,0,1-.474-.016v-1.508Zm4.1,2.364h3.383v-1.015h-2.154v-4.333h-1.229v5.348Zm4.566-5.348v5.348h1.23v-5.348Zm6.544,4.253a3.082,3.082,0,0,1-1.02.175,1.758,1.758,0,0,1-.009-3.515,2.688,2.688,0,0,1,1.029.2l.25-.959a3.224,3.224,0,0,0-1.335-.239,2.746,2.746,0,0,0-2.957,2.842,2.56,2.56,0,0,0,2.837,2.673,3.534,3.534,0,0,0,1.391-.229l-.186-.944Zm10.587-4.341a2.6,2.6,0,0,0-2.636,2.8,2.507,2.507,0,0,0,2.548,2.722,2.564,2.564,0,0,0,2.66-2.816,2.507,2.507,0,0,0-2.572-2.707Zm-.032.961c.844,0,1.31.824,1.31,1.785,0,1.039-.474,1.817-1.3,1.817s-1.318-.738-1.318-1.785.482-1.817,1.31-1.817Zm3.867,4.475H215.4v-1.015h-2.154v-4.333h-1.23v5.348Zm4.566-5.348v5.348h1.229v-5.348Zm6.544,4.253a3.083,3.083,0,0,1-1.021.175,1.758,1.758,0,0,1-.009-3.515,2.689,2.689,0,0,1,1.029.2l.249-.959a3.222,3.222,0,0,0-1.334-.239,2.746,2.746,0,0,0-2.958,2.842,2.56,2.56,0,0,0,2.837,2.673,3.531,3.531,0,0,0,1.391-.229l-.185-.944Zm3.98,1.095v-2.229l1.783-3.119h-1.374l-.546,1.286c-.16.38-.289.689-.41,1.022h-.016c-.136-.349-.249-.635-.418-1.022l-.554-1.286h-1.4l1.711,3.158v2.189Z" transform="translate(0 -9.396)" fill="#404041"/>
  </g>
</svg>
